<?xml version="1.0" encoding="utf-8"?>
<!-- Generator: Adobe Illustrator 18.1.1, SVG Export Plug-In . SVG Version: 6.00 Build 0)  -->
<svg version="1.1" xmlns="http://www.w3.org/2000/svg" xmlns:xlink="http://www.w3.org/1999/xlink" x="0px" y="0px"
	 viewBox="0 0 381.9 720" enable-background="new 0 0 381.9 720" xml:space="preserve">
<g id="Layer_1" display="none">
</g>
<g id="Layer_2" display="none">
</g>
<g id="Layer_9">
</g>
<g id="most-bottom" display="none">
	<g display="inline">
		<rect x="0" fill="#282828" width="381.9" height="720"/>
		<linearGradient id="SVGID_1_" gradientUnits="userSpaceOnUse" x1="25.8534" y1="44.1397" x2="353.919" y2="641.1783">
			<stop  offset="0" style="stop-color:#3ABFEF"/>
			<stop  offset="1" style="stop-color:#007AA0"/>
		</linearGradient>
		<rect x="24.3" y="40.1" fill="url(#SVGID_1_)" width="333.3" height="609.1"/>
		<ellipse fill="#FFFFFF" cx="190.9" cy="683.8" rx="13.5" ry="14.7"/>
		<path fill="#FFFFFF" d="M154.4,690.2h-43.2c-1.3,0-2.3-1-2.3-2.3v-8.2c0-1.3,1-2.3,2.3-2.3h43.2c1.3,0,2.3,1,2.3,2.3v8.2
			C156.7,689.1,155.7,690.2,154.4,690.2z"/>
		<path fill="#FFFFFF" d="M267.5,690.2h-43.2c-1.3,0-2.3-1-2.3-2.3v-8.2c0-1.3,1-2.3,2.3-2.3h43.2c1.3,0,2.3,1,2.3,2.3v8.2
			C269.8,689.1,268.8,690.2,267.5,690.2z"/>
	</g>
</g>
<g id="bottom" display="none">
	<g display="inline">
		<linearGradient id="SVGID_2_" gradientUnits="userSpaceOnUse" x1="25.8425" y1="43.9775" x2="353.9927" y2="641.1701">
			<stop  offset="0" style="stop-color:#3ABFEF"/>
			<stop  offset="1" style="stop-color:#007AA0"/>
		</linearGradient>
		<rect x="24.3" y="39.9" fill="url(#SVGID_2_)" width="333.4" height="609.2"/>
		<rect x="73.5" y="596.6" fill="#F37655" width="232.3" height="28.5"/>
		<line fill="none" stroke="#293687" stroke-miterlimit="10" x1="24.3" y1="314.8" x2="357.7" y2="314.8"/>
		<line fill="none" stroke="#293687" stroke-miterlimit="10" x1="24.3" y1="400.4" x2="357.7" y2="400.4"/>
		<line fill="none" stroke="#293687" stroke-miterlimit="10" x1="357.7" y1="230.4" x2="24.3" y2="230.4"/>
		<rect x="24.3" y="146" opacity="0.45" fill="#293687" width="333.6" height="84.4"/>
		<g id="menu_6_">
			<line fill="none" stroke="#FFFFFF" stroke-width="2" stroke-miterlimit="10" x1="44.3" y1="60.2" x2="72.3" y2="60.2"/>
			<line fill="none" stroke="#FFFFFF" stroke-width="2" stroke-miterlimit="10" x1="44.3" y1="70.1" x2="72.3" y2="70.1"/>
			<line fill="none" stroke="#FFFFFF" stroke-width="2" stroke-miterlimit="10" x1="44.3" y1="79.2" x2="72.3" y2="79.2"/>
		</g>
		<circle fill="#F37655" cx="59.7" cy="188" r="15.3"/>
		<circle fill="#FFFFFF" cx="59.7" cy="273.6" r="15.3"/>
		<circle fill="#FFFFFF" cx="59.7" cy="359.6" r="15.3"/>
		<rect x="90.1" y="349.5" fill="#293687" width="86.6" height="8.8"/>
		<rect x="90.1" y="364.6" fill="#293687" width="151.8" height="5.1"/>
		<rect x="90.1" y="263.5" fill="#293687" width="86.6" height="8.8"/>
		<rect x="90.1" y="278.6" fill="#293687" width="151.8" height="5.1"/>
		<rect x="88.8" y="177.9" fill="#293687" width="86.6" height="8.8"/>
		<rect x="88.8" y="193" fill="#293687" width="151.8" height="5.1"/>
		<polyline fill="none" stroke="#FFFFFF" stroke-miterlimit="10" points="49.2,188.6 56,194.7 69.7,183.4 		"/>
	</g>
</g>
<g id="center" display="none">
	<g display="inline">
		<linearGradient id="SVGID_3_" gradientUnits="userSpaceOnUse" x1="25.8401" y1="43.9788" x2="353.9888" y2="641.1688">
			<stop  offset="0" style="stop-color:#3ABFEF"/>
			<stop  offset="1" style="stop-color:#007AA0"/>
		</linearGradient>
		<rect x="24.3" y="39.9" fill="url(#SVGID_3_)" width="333.4" height="609.2"/>
		<path fill="#F37655" d="M248.9,402.7H133.1c-2.9,0-5.2-2.3-5.2-5.2v-17.3c0-2.9,2.3-5.2,5.2-5.2h115.8c2.9,0,5.2,2.3,5.2,5.2v17.3
			C254.1,400.4,251.7,402.7,248.9,402.7z"/>
		<g id="menu_4_">
			<line fill="none" stroke="#FFFFFF" stroke-width="2" stroke-miterlimit="10" x1="44.3" y1="59.6" x2="72.3" y2="59.6"/>
			<line fill="none" stroke="#FFFFFF" stroke-width="2" stroke-miterlimit="10" x1="44.3" y1="69.1" x2="72.3" y2="69.1"/>
			<line fill="none" stroke="#FFFFFF" stroke-width="2" stroke-miterlimit="10" x1="44.3" y1="78" x2="72.3" y2="78"/>
		</g>
		<rect x="132.7" y="129.4" fill="#FFFFFF" width="110.2" height="11"/>
		<rect x="63.9" y="210.4" fill="#FFFFFF" width="105.5" height="11"/>
		<rect x="53" y="195.1" fill="#FFFFFF" width="274.5" height="41.5"/>
		<rect x="53" y="256.6" fill="#FFFFFF" width="274.5" height="41.5"/>
		<rect x="63.9" y="210.4" fill="#848484" width="105.5" height="11"/>
		<rect x="63.9" y="271.8" fill="#848484" width="105.5" height="11"/>
	</g>
</g>
<g id="top" display="none">
	<g display="inline">
		<linearGradient id="SVGID_4_" gradientUnits="userSpaceOnUse" x1="25.8401" y1="43.9788" x2="353.9889" y2="641.1688">
			<stop  offset="0" style="stop-color:#3ABFEF"/>
			<stop  offset="1" style="stop-color:#007AA0"/>
		</linearGradient>
		<rect x="24.3" y="39.9" fill="url(#SVGID_4_)" width="333.4" height="609.2"/>
		<g id="menu_2_">
			<line fill="none" stroke="#FFFFFF" stroke-width="2" stroke-miterlimit="10" x1="44.3" y1="60.2" x2="72.3" y2="60.2"/>
			<line fill="none" stroke="#FFFFFF" stroke-width="2" stroke-miterlimit="10" x1="44.3" y1="70.1" x2="72.3" y2="70.1"/>
			<line fill="none" stroke="#FFFFFF" stroke-width="2" stroke-miterlimit="10" x1="44.3" y1="79.2" x2="72.3" y2="79.2"/>
		</g>
		<rect x="135.9" y="363.9" fill="#FFFFFF" width="110.2" height="11.4"/>
		<rect x="135.9" y="389.1" fill="#FFFFFF" width="110.2" height="11.4"/>
		<circle opacity="0.4" fill="#FFFFFF" cx="191" cy="192.7" r="82.5"/>
	</g>
</g>
<g id="topmost">
	<g>
		<path fill="#FFFFFF" d="M274.8,192.7c0-46-37.3-83.4-83.4-83.4s-83.4,37.3-83.4,83.4c0,26.2,12.1,49.5,31,64.8
			c5.4-14.6,18.1-26.5,34.4-30.1c3.5-0.8,7.2-1.1,10.8-1.2c6.8-0.1,13.7-0.3,20.5,0.4c17.7,1.8,33,14.3,39,30.9
			C262.7,242.2,274.8,218.9,274.8,192.7z M191.3,222c-17.5-0.1-31.5-14.2-31.5-31.7c0-17.5,14.1-31.5,31.7-31.5
			c17.4,0,31.5,14.2,31.5,31.7C222.9,208,208.7,222.1,191.3,222z"/>
		<path fill="#FFFFFF" d="M204.7,226.7c-6.8-0.7-13.7-0.5-20.5-0.4c-3.6,0-7.3,0.4-10.8,1.2c-16.2,3.6-28.9,15.5-34.4,30.1
			c14.3,11.6,32.5,18.5,52.4,18.5c19.8,0,38.1-6.9,52.4-18.5C237.7,241,222.4,228.4,204.7,226.7z"/>
		<linearGradient id="SVGID_5_" gradientUnits="userSpaceOnUse" x1="194.5547" y1="273.8448" x2="174.4583" y2="169.7905">
			<stop  offset="0" style="stop-color:#3ABFEF"/>
			<stop  offset="1" style="stop-color:#007AA0"/>
		</linearGradient>
		<path fill="url(#SVGID_5_)" d="M204.7,226.7c-6.8-0.7-13.7-0.5-20.5-0.4c-3.6,0-7.3,0.4-10.8,1.2c-16.2,3.6-28.9,15.5-34.4,30.1
			c14.3,11.6,32.5,18.5,52.4,18.5c19.8,0,38.1-6.9,52.4-18.5C237.7,241,222.4,228.4,204.7,226.7z"/>
		<path fill="#FFFFFF" d="M191.5,158.7c-17.5,0-31.6,14.1-31.7,31.5c0,17.5,14,31.7,31.5,31.7c17.4,0.1,31.6-14.1,31.6-31.6
			C223,172.9,208.9,158.7,191.5,158.7z"/>
		<linearGradient id="SVGID_6_" gradientUnits="userSpaceOnUse" x1="207.0531" y1="271.4309" x2="186.9567" y2="167.3766">
			<stop  offset="0" style="stop-color:#3ABFEF"/>
			<stop  offset="1" style="stop-color:#007AA0"/>
		</linearGradient>
		<path fill="url(#SVGID_6_)" d="M191.5,158.7c-17.5,0-31.6,14.1-31.7,31.5c0,17.5,14,31.7,31.5,31.7c17.4,0.1,31.6-14.1,31.6-31.6
			C223,172.9,208.9,158.7,191.5,158.7z"/>
	</g>
</g>
<g id="pc" display="none">
</g>
</svg>
