<?xml version="1.0" encoding="utf-8"?>
<!-- Generator: Adobe Illustrator 18.1.1, SVG Export Plug-In . SVG Version: 6.00 Build 0)  -->
<svg version="1.1" xmlns="http://www.w3.org/2000/svg" xmlns:xlink="http://www.w3.org/1999/xlink" x="0px" y="0px"
	 viewBox="0 0 381.9 720" enable-background="new 0 0 381.9 720" xml:space="preserve">
<g id="Layer_1" display="none">
</g>
<g id="Layer_2" display="none">
</g>
<g id="Layer_9">
</g>
<g id="most-bottom">
	<g>
		<rect x="0" y="0" fill="#282828" width="381.9" height="720"/>
		<linearGradient id="SVGID_1_" gradientUnits="userSpaceOnUse" x1="25.8534" y1="44.1396" x2="353.919" y2="641.1783">
			<stop  offset="0" style="stop-color:#3ABFEF"/>
			<stop  offset="1" style="stop-color:#007AA0"/>
		</linearGradient>
		<rect x="24.3" y="40.1" fill="url(#SVGID_1_)" width="333.3" height="609.1"/>
		<ellipse fill="#FFFFFF" cx="190.9" cy="683.8" rx="13.5" ry="14.7"/>
		<path fill="#FFFFFF" d="M154.4,690.2h-43.2c-1.3,0-2.3-1-2.3-2.3v-8.2c0-1.3,1-2.3,2.3-2.3h43.2c1.3,0,2.3,1,2.3,2.3v8.2
			C156.7,689.1,155.7,690.2,154.4,690.2z"/>
		<path fill="#FFFFFF" d="M267.5,690.2h-43.2c-1.3,0-2.3-1-2.3-2.3v-8.2c0-1.3,1-2.3,2.3-2.3h43.2c1.3,0,2.3,1,2.3,2.3v8.2
			C269.8,689.1,268.8,690.2,267.5,690.2z"/>
	</g>
</g>
<g id="bottom">
</g>
<g id="center">
</g>
<g id="top">
</g>
<g id="topmost">
</g>
<g id="pc" display="none">
</g>
</svg>
